<svg id="Layer_1" class="controller" xmlns="http://www.w3.org/2000/svg" viewBox="-20 -20 549.35 405.84" style="width: 398px;margin-top: 102px;">
    <path class="padBlack" d="M254.67,11.95c-16.09.05-35.29.15-58.02.33-100.92.82-124.72,22.15-142.77,34.46-18.05,12.31-31.59,104.62-47.18,194.05-15.59,89.44,0,96.82,6.56,106.67,6.56,9.85,41.85,32.82,63.59,5.33s36.92-64.82,45.95-80.82c9.03-16,19.69-13.54,19.69-13.54h224.34s10.67-2.46,19.69,13.54c9.03,16,24.21,53.33,45.95,80.82,21.74,27.49,57.03,4.51,63.59-5.33,6.56-9.85,22.15-17.23,6.56-106.67-15.59-89.44-29.13-181.74-47.18-194.05s-41.85-33.64-142.77-34.46c-22.73-.18-41.92-.29-58.02-.33Z" style="fill: rgb(36, 36, 36); stroke: none; stroke-width: 0pt; vector-effect: non-scaling-stroke;"></path>
    <path class="padGrey" d="M183.94,13.51c-85.21,2.3-110.06,20.28-127.1,32.18.2-.88,10.87-45.81,102.28-42.97l24.82,10.79Z" style="fill: rgb(96, 106, 110);"></path>
    <path class="padGrey" d="M325.4,13.51c85.21,2.3,110.06,20.28,127.1,32.18-.2-.88-10.87-45.81-102.28-42.97l-24.82,10.79Z" style="fill: rgb(96, 106, 110);"></path>
    <path id="Path_466" class="padGrey" d="M298.16,109.18c0,6.61-5.36,11.96-11.96,11.97-6.61,0-11.96-5.36-11.97-11.96,0-6.61,5.36-11.96,11.96-11.97h0c6.61,0,11.96,5.36,11.96,11.96h0" style="fill: rgb(96, 106, 110);"></path>
    <path id="Path_466-2" class="padGrey" d="M328.47,69.57c0,6.61-5.36,11.96-11.96,11.97-6.61,0-11.96-5.36-11.97-11.96,0-6.61,5.36-11.96,11.96-11.97h0c6.61,0,11.96,5.36,11.96,11.96h0" style="fill: rgb(96, 106, 110);"></path>
    <path id="Path_466-3" class="padGrey" d="M205.54,69.57c0,6.61-5.36,11.96-11.96,11.97-6.61,0-11.96-5.36-11.97-11.96,0-6.61,5.36-11.96,11.96-11.97h0c6.61,0,11.96,5.36,11.96,11.96h0" style="fill: rgb(96, 106, 110);"></path>
    <path id="Path_467" class="padWhite" d="M286.19,101.41l-7.5,7.38,2.28.06v6.59h10.44v-6.59l2.28-.06-7.5-7.38ZM288.65,113.23h-4.92v-4.27h4.92v4.27Z" style="fill: rgb(255, 255, 255);"></path>
    <rect id="Rectangle_374" class="padWhite" x="187.4" y="67.78" width="12.36" height="3.47" style="fill: rgb(255, 255, 255);"></rect>
    <polygon class="padWhite" points="322.6 68.04 318.01 68.04 318.01 63.44 315 63.44 315 68.04 310.4 68.04 310.4 71.05 315 71.05 315 75.64 318.01 75.64 318.01 71.05 322.6 71.05 322.6 68.04" style="fill: rgb(255, 255, 255);"></polygon>
    <rect id="Rectangle_377" class="padGrey" x="245.14" y="210.41" width="19.41" height="20.46" style="fill: rgb(96, 106, 110);"></rect>
    <path style="fill:#fff;" d="M258.36,225.81c-.42.22-1.34.43-2.51.43-3.09,0-4.96-1.93-4.96-4.89,0-3.2,2.22-5.13,5.19-5.13,1.17,0,2,.24,2.36.43l-.39,1.41c-.46-.2-1.1-.38-1.9-.38-1.98,0-3.4,1.24-3.4,3.58,0,2.13,1.25,3.5,3.39,3.5.72,0,1.47-.14,1.93-.36l.29,1.4Z"></path>
    <path id="Path_468" class="padGrey" d="M406.77,73.83c0,10.59-8.58,19.17-19.17,19.17s-19.17-8.58-19.17-19.17,8.58-19.17,19.17-19.17h0c10.59,0,19.17,8.58,19.17,19.17" style="fill: rgb(96, 106, 110);"></path>
    <path id="Path_469" class="padGrey" d="M406.77,145.22c0,10.59-8.58,19.17-19.17,19.17s-19.17-8.58-19.17-19.17c0-10.59,8.58-19.17,19.17-19.17h0c10.59,0,19.17,8.58,19.17,19.17" style="fill: rgb(96, 106, 110);"></path>
    <path id="Path_470" class="padGrey" d="M346.21,90.01c10.59,0,19.17,8.58,19.17,19.17,0,10.59-8.58,19.17-19.17,19.17s-19.17-8.58-19.17-19.17h0c0-10.59,8.58-19.17,19.17-19.17" style="fill: rgb(96, 106, 110);"></path>
    <path id="Path_471" class="padGrey" d="M428.51,90.01c10.59,0,19.17,8.58,19.17,19.17,0,10.59-8.58,19.17-19.17,19.17s-19.17-8.58-19.17-19.17h0c0-10.59,8.58-19.17,19.17-19.17" style="fill: rgb(96, 106, 110);"></path>
    <path class="padWhite" d="M385.95,73.61l-4.23,6.81h1.99c.36-.61,1.13-1.9,1.13-1.91.13-.21.28-.46.44-.73.16-.27.31-.54.45-.8.14-.26.27-.5.39-.72l.83-1.62.85,1.61c.12.23.26.48.41.75.14.26.29.53.45.79.16.27.31.52.42.74l1.13,1.9h1.99l-4.24-6.81,4.04-6.48h-1.99c-.31.53-.92,1.56-.92,1.56-.14.24-.28.48-.43.75-.15.26-.29.51-.43.77l-.02.03-.02.04c-.14.25-.26.48-.38.69l-.84,1.59-.84-1.59c-.08-.15-.17-.31-.26-.48-.05-.09-.1-.18-.15-.27-.14-.26-.29-.53-.45-.79-.16-.27-.3-.52-.43-.74l-.92-1.56h-1.99l4.02,6.48ZM425.92,110.55l1.23-3.47c.15-.43.29-.84.42-1.23.13-.39.22-.72.29-.97l.61-1.56.61,1.56c.06.26.16.58.29.98.13.4.27.81.42,1.23l1.23,3.47h-5.1ZM427.55,102.01l-5.09,13.29h1.76l1.14-3.24h6.21l1.14,3.24h1.85l-5.05-13.29h-1.96ZM345.16,110.06v5.25h1.64v-5.31l5-7.98h-1.82c-.5.84-1.87,3.14-1.87,3.14-.14.23-.28.48-.43.75-.15.27-.3.53-.44.8-.12.21-.23.42-.33.61l-.07.12-.84,1.6-.84-1.6-.11-.2c-.09-.17-.19-.36-.29-.54-.14-.26-.29-.53-.44-.79-.16-.27-.3-.52-.42-.73l-1.88-3.14h-1.86l5,8.05ZM384.44,143.87v-3.99h4.32c.68,0,1.33.12,1.78.5.19.16.34.36.45.59.13.28.19.6.19.92,0,.54-.17,1.02-.54,1.41-.16.16-.34.28-.55.37-.34.15-.75.2-1.18.2h-4.47ZM384.44,150.21v-5.01h4.49c.77,0,1.47.17,1.98.63.22.19.38.43.5.7.16.35.22.75.22,1.17,0,.71-.21,1.34-.69,1.82-.2.2-.44.35-.7.46-.39.16-.83.23-1.31.23h-4.49ZM382.85,138.43v13.29h5.98c.72,0,1.36-.09,1.93-.27.56-.18,1.03-.44,1.41-.77.37-.33.67-.74.89-1.25.21-.5.32-1.09.32-1.78s-.17-1.23-.46-1.62c-.33-.44-.73-.77-1.21-.98l-1.09-.49,1.02-.62c.39-.24.69-.55.91-.93.21-.38.33-.83.33-1.36,0-.6-.11-1.09-.3-1.49-.16-.34-.4-.63-.71-.88-.69-.55-1.66-.85-2.98-.85h-6.04Z" style="fill: rgb(255, 255, 255);"></path>
    <path class="padGrey" d="M170.2,147.07v24.08h-24.08c-1.6,0-2.89,1.29-2.89,2.89v15.35c0,1.6,1.29,2.89,2.89,2.89h24.08v24.08c0,1.6,1.29,2.89,2.89,2.89h15.35c1.6,0,2.89-1.29,2.89-2.89v-24.08h24.08c1.6,0,2.89-1.29,2.89-2.89v-15.35c0-1.6-1.29-2.89-2.89-2.89h-24.08v-24.08c0-1.6-1.29-2.89-2.89-2.89h-15.35c-1.6,0-2.89,1.29-2.89,2.89Z" style="fill: rgb(96, 106, 110);"></path>
    <polygon class="padWhite" points="180.77 153.72 178 158.9 183.54 158.9 180.77 153.72" style="fill: rgb(255, 255, 255);"></polygon>
    <polygon class="padWhite" points="208.77 181.72 203.59 178.95 203.59 184.49 208.77 181.72" style="fill: rgb(255, 255, 255);"></polygon>
    <polygon class="padWhite" points="180.77 209.72 183.54 204.54 178 204.54 180.77 209.72" style="fill: rgb(255, 255, 255);"></polygon>
    <polygon class="padWhite" points="152.77 181.72 157.95 184.49 157.95 178.95 152.77 181.72" style="fill: rgb(255, 255, 255);"></polygon>
    <path id="Path_324" class="padGrey" d="M116.14,71.22c21.03,0,38.08,17.05,38.08,38.08,0,21.03-17.05,38.08-38.08,38.08s-38.08-17.05-38.08-38.08c.02-21.02,17.06-38.06,38.08-38.08M116.14,67.69c-22.98,0-41.61,18.63-41.61,41.61s18.63,41.61,41.61,41.61,41.61-18.63,41.61-41.61c0-22.98-18.63-41.62-41.61-41.62h0" style="fill: rgb(96, 106, 110);"></path>
    <path id="Path_325" class="padGrey" d="M116.14,81.16c15.54,0,28.14,12.6,28.14,28.14,0,15.54-12.6,28.14-28.14,28.14s-28.14-12.6-28.14-28.14c.02-15.53,12.61-28.12,28.14-28.14M116.14,75.51c-18.67,0-33.8,15.13-33.8,33.8s15.13,33.8,33.8,33.8,33.8-15.13,33.8-33.8h0c0-18.66-15.13-33.8-33.79-33.8h0" style="fill: rgb(96, 106, 110);"></path>
    <path id="Path_326" class="padWhite" d="M116.14,89.86c10.74,0,19.44,8.7,19.44,19.44s-8.7,19.44-19.44,19.44-19.44-8.7-19.44-19.44h0c.01-10.73,8.71-19.43,19.44-19.44M116.14,87.04c-12.3,0-22.26,9.97-22.26,22.27s9.97,22.26,22.27,22.26,22.26-9.97,22.26-22.26c0-12.3-9.97-22.26-22.26-22.27h0" style="fill: rgb(255, 255, 255);"></path>
    <path id="Path_357" class="padGrey" d="M136.47,109.07c0,11.07-8.98,20.05-20.05,20.05s-20.05-8.98-20.05-20.05,8.98-20.05,20.05-20.05h0c11.07,0,20.05,8.98,20.05,20.05" style="fill: rgb(96, 106, 110);"></path>
    <path id="Path_324-2" class="padGrey" d="M318.39,143.64c21.03,0,38.08,17.05,38.08,38.08,0,21.03-17.05,38.08-38.08,38.08s-38.08-17.05-38.08-38.08c.02-21.02,17.06-38.06,38.08-38.08M318.39,140.11c-22.98,0-41.61,18.63-41.61,41.61s18.63,41.61,41.61,41.61,41.61-18.63,41.61-41.61c0-22.98-18.63-41.62-41.61-41.62h0" style="fill: rgb(96, 106, 110);"></path>
    <path id="Path_325-2" class="padGrey" d="M318.39,153.58c15.54,0,28.14,12.6,28.14,28.14,0,15.54-12.6,28.14-28.14,28.14s-28.14-12.6-28.14-28.14c.02-15.53,12.61-28.12,28.14-28.14M318.39,147.93c-18.67,0-33.8,15.13-33.8,33.8s15.13,33.8,33.8,33.8,33.8-15.13,33.8-33.8h0c0-18.66-15.13-33.8-33.79-33.8h0" style="fill: rgb(96, 106, 110);"></path>
    <path id="Path_326-2" class="padWhite" d="M318.39,162.28c10.74,0,19.44,8.7,19.44,19.44s-8.7,19.44-19.44,19.44-19.44-8.7-19.44-19.44h0c.01-10.73,8.71-19.43,19.44-19.44M318.39,159.46c-12.3,0-22.26,9.97-22.26,22.27s9.97,22.26,22.27,22.26,22.26-9.97,22.26-22.26c0-12.3-9.97-22.26-22.26-22.27h0" style="fill: rgb(255, 255, 255);"></path>
    <path id="Path_357-2" class="padGrey" d="M338.73,181.49c0,11.07-8.98,20.05-20.05,20.05s-20.05-8.98-20.05-20.05,8.98-20.05,20.05-20.05h0c11.07,0,20.05,8.98,20.05,20.05" style="fill: rgb(96, 106, 110);"></path>
    <rect id="Rectangle_377-2" class="padGrey" x="214.23" y="99.45" width="19.38" height="20.42" style="fill: rgb(96, 106, 110);"></rect>
    <path id="Path_461" style="fill:#302b2e;" d="M230.46,109.66c0,3.62-2.93,6.55-6.55,6.55s-6.55-2.93-6.55-6.55c0-3.62,2.93-6.55,6.55-6.55h0c3.62,0,6.55,2.93,6.55,6.55"></path>
    <g id="Path_462">
        <path class="padWhite" d="M223.91,116.77c-3.92,0-7.11-3.19-7.11-7.11s3.19-7.11,7.11-7.11,7.11,3.19,7.11,7.11-3.19,7.11-7.11,7.11ZM223.91,103.68c-3.3,0-5.98,2.68-5.98,5.98s2.68,5.98,5.98,5.98,5.98-2.68,5.98-5.98-2.68-5.98-5.98-5.98Z" style="fill: rgb(255, 255, 255);"></path>
    </g>
    <g style="opacity:.5;">
        <path class="padGrey" d="M262.16,53.84c2.97-2.53,5.9-5.1,8.85-7.63,2.28-1.96,7.65-5.62,8-8.68.23-1.99-.92-3.93-2.79-4.63-4.2-1.57-7.67,1.75-10.53,4.31l-4.81-5.18c-.06-.13.12-.29.19-.38,1.8-2.32,5.83-5.08,8.63-5.98,11.99-3.84,22.78,8.91,13.61,19.08-1.11,1.24-2.45,2.35-3.58,3.58l-4.85,4.14h12.72v7.25h-25.44v-5.89Z" style="fill: rgb(96, 106, 110);"></path>
        <path class="padGrey" d="M242.19,59.73c.03-.09-.09-.2-.09-.24V25.67l.14-.14h6.22c.31,0,1.21.24,1.55.33,3.66,1,6.19,4.33,6.41,8.1.33,5.7-.26,11.71,0,17.44.02,3.9-4.03,8.33-7.97,8.33h-6.27ZM248.48,40.92c-4.38.47-3.84,7.39.91,6.84,4.27-.5,3.68-7.34-.91-6.84Z" style="fill: rgb(96, 106, 110);"></path>
        <path class="padGrey" d="M230.18,59.73c-4.19-.37-7.68-3.96-7.97-8.15.31-5.85-.4-12.1,0-17.91.3-4.37,3.9-7.86,8.24-8.15,2.57-.17,5.33.14,7.92,0l.32.15v33.92l-.14.14h-8.39ZM235.97,28.36h-5.98c-.42,0-1.71.57-2.11.81-1.86,1.12-2.8,3.03-2.93,5.17-.36,5.69.18,11.88.12,17.6.09,2.08,2.87,4.97,4.92,4.97h5.98v-28.55Z" style="fill: rgb(96, 106, 110);"></path>
            <polygon class="padGrey" points="236.82 74.43 238.52 81.12 238.71 80.99 240.73 74.42 242.37 74.44 244.31 81.12 246.15 74.43 248.31 74.43 245.44 83.95 243.24 83.94 241.48 77.82 239.73 83.94 237.38 83.91 234.65 74.43 236.82 74.43" style="fill: rgb(96, 106, 110);"></polygon>
            <polygon class="padGrey" points="278.27 74.43 278.27 78.2 282.7 78.2 282.7 74.43 284.68 74.43 284.68 83.95 282.7 83.95 282.7 80.18 278.27 80.18 278.27 83.95 276.2 83.95 276.2 74.43 278.27 74.43" style="fill: rgb(96, 106, 110);"></polygon>
            <path class="padGrey" d="M232.86,75l-.8,1.68c-.9-.61-4.62-1.09-5.09.01-.36.84.63,1.13,1.25,1.29,1.95.51,5.63.55,5.39,3.47s-4.09,3.01-6.23,2.66c-.92-.15-1.76-.49-2.62-.82l.85-1.69c1.27.72,4.11,1.3,5.4.55.88-.51.82-1.33-.13-1.73-1.8-.75-7.2-.54-5.88-4.1.96-2.6,5.81-2.28,7.86-1.32Z" style="fill: rgb(96, 106, 110);"></path>
            <path class="padGrey" d="M269.59,74.08c1.75-.07,3.46.74,4.43,2.2.03.17-1.35,1.37-1.53,1.34-1.81-2.57-5.93-1.3-5.62,1.94.27,2.77,4.18,3.55,5.61,1.18.09-.02,1.47,1.14,1.51,1.23.16.32-1.13,1.39-1.44,1.58-3.54,2.24-8.14-.61-7.85-4.74.18-2.52,2.36-4.63,4.88-4.73Z" style="fill: rgb(96, 106, 110);"></path>
            <polygon class="padGrey" points="263.2 74.43 263.2 76.41 260.28 76.41 260.28 83.95 258.21 83.95 258.21 76.55 258.06 76.41 255.1 76.41 255.1 74.43 263.2 74.43" style="fill: rgb(96, 106, 110);"></polygon>
            <rect class="padGrey" x="250.67" y="74.43" width="2.17" height="9.52" style="fill: rgb(96, 106, 110);"></rect>
            <path class="padGrey" d="M282.29,66.55c3.46-.08,3.71,5.12.36,5.43-3.78.35-3.99-5.34-.36-5.43ZM281.92,67.76c-1.46.3-1.56,2.79.19,3.07,2.37.38,2.42-3.61-.19-3.07Z" style="fill: rgb(96, 106, 110);"></path>
            <path class="padGrey" d="M225.14,66.85c.07-.23.89-.14,1.11-.12l2.47,3.28v-3.3h1.04v5.09l-1.09-.09-2.4-3.12v3.2h-1.13v-4.95Z" style="fill: rgb(96, 106, 110);"></path>
            <polygon class="padGrey" points="242 69.91 242 66.71 243.04 66.71 243.04 71.79 241.95 71.71 239.55 68.5 239.55 71.79 238.51 71.79 238.51 66.71 239.6 66.79 242 69.91" style="fill: rgb(96, 106, 110);"></polygon>
            <path class="padGrey" d="M266.31,69.91v-3.06c.25-.27.7-.1,1.04-.14v5.09l-1.04-.05-2.45-3.25v3.3h-1.04v-5.09l1.09.09,2.4,3.12Z" style="fill: rgb(96, 106, 110);"></path>
            <path class="padGrey" d="M271.68,71.79v-5.09h2.4c.13,0,.8.28.96.36,1.72.9,1.8,3.32.15,4.33-.12.07-.75.4-.83.4h-2.69ZM272.72,70.76h1.37s.44-.19.51-.24c.83-.54.92-1.77.13-2.39-.08-.06-.49-.3-.55-.3h-1.46v2.92Z" style="fill: rgb(96, 106, 110);"></path>
            <path class="padGrey" d="M258.68,67.65h-2.92v1.13h2.64v.94h-2.64v1.13h2.78c.26.22.11.63.14.94h-4.05v-4.95l.14-.14h3.77c.26.22.11.63.14.94Z" style="fill: rgb(96, 106, 110);"></path>
            <path class="padGrey" d="M250.95,66.71v1.13h-1.51v3.96h-1.13v-3.96h-1.55l-.13-.16c-.03-.09-.01-.18-.02-.26-.02-.23-.05-.57.15-.71h4.19Z" style="fill: rgb(96, 106, 110);"></path>
            <path class="padGrey" d="M234.75,71.79h-1.22v-4.95c.27-.23.97-.23,1.22,0v4.95Z" style="fill: rgb(96, 106, 110);"></path>
            <path class="padGrey" d="M230.2,32.62c4.51-.62,5.05,5.91,1,6.37-4.36.5-4.9-5.84-1-6.37Z" style="fill: rgb(96, 106, 110);"></path>
            <path class="padGrey" d="M262.16,53.84c2.97-2.53,5.9-5.1,8.85-7.63,2.28-1.96,7.65-5.62,8-8.68.23-1.99-.92-3.93-2.79-4.63-4.2-1.57-7.67,1.75-10.53,4.31l-4.81-5.18c-.06-.13.12-.29.19-.38,1.8-2.32,5.83-5.08,8.63-5.98,11.99-3.84,22.78,8.91,13.61,19.08-1.11,1.24-2.45,2.35-3.58,3.58l-4.85,4.14h12.72v7.25h-25.44v-5.89Z" style="fill: rgb(96, 106, 110);"></path>
            <path class="padGrey" d="M242.19,59.73c.03-.09-.09-.2-.09-.24V25.67l.14-.14h6.22c.31,0,1.21.24,1.55.33,3.66,1,6.19,4.33,6.41,8.1.33,5.7-.26,11.71,0,17.44.02,3.9-4.03,8.33-7.97,8.33h-6.27ZM248.48,40.92c-4.38.47-3.84,7.39.91,6.84,4.27-.5,3.68-7.34-.91-6.84Z" style="fill: rgb(96, 106, 110);"></path>
            <path class="padGrey" d="M230.18,59.73c-4.19-.37-7.68-3.96-7.97-8.15.31-5.85-.4-12.1,0-17.91.3-4.37,3.9-7.86,8.24-8.15,2.57-.17,5.33.14,7.92,0l.32.15v33.92l-.14.14h-8.39ZM235.97,28.36h-5.98c-.42,0-1.71.57-2.11.81-1.86,1.12-2.8,3.03-2.93,5.17-.36,5.69.18,11.88.12,17.6.09,2.08,2.87,4.97,4.92,4.97h5.98v-28.55Z" style="fill: rgb(96, 106, 110);"></path>
            <polygon class="padGrey" points="236.82 74.43 238.52 81.12 238.71 80.99 240.73 74.42 242.37 74.44 244.31 81.12 246.15 74.43 248.31 74.43 245.44 83.95 243.24 83.94 241.48 77.82 239.73 83.94 237.38 83.91 234.65 74.43 236.82 74.43" style="fill: rgb(96, 106, 110);"></polygon>
            <polygon class="padGrey" points="278.27 74.43 278.27 78.2 282.7 78.2 282.7 74.43 284.68 74.43 284.68 83.95 282.7 83.95 282.7 80.18 278.27 80.18 278.27 83.95 276.2 83.95 276.2 74.43 278.27 74.43" style="fill: rgb(96, 106, 110);"></polygon>
            <path class="padGrey" d="M232.86,75l-.8,1.68c-.9-.61-4.62-1.09-5.09.01-.36.84.63,1.13,1.25,1.29,1.95.51,5.63.55,5.39,3.47s-4.09,3.01-6.23,2.66c-.92-.15-1.76-.49-2.62-.82l.85-1.69c1.27.72,4.11,1.3,5.4.55.88-.51.82-1.33-.13-1.73-1.8-.75-7.2-.54-5.88-4.1.96-2.6,5.81-2.28,7.86-1.32Z" style="fill: rgb(96, 106, 110);"></path>
            <path class="padGrey" d="M269.59,74.08c1.75-.07,3.46.74,4.43,2.2.03.17-1.35,1.37-1.53,1.34-1.81-2.57-5.93-1.3-5.62,1.94.27,2.77,4.18,3.55,5.61,1.18.09-.02,1.47,1.14,1.51,1.23.16.32-1.13,1.39-1.44,1.58-3.54,2.24-8.14-.61-7.85-4.74.18-2.52,2.36-4.63,4.88-4.73Z" style="fill: rgb(96, 106, 110);"></path>
            <polygon class="padGrey" points="263.2 74.43 263.2 76.41 260.28 76.41 260.28 83.95 258.21 83.95 258.21 76.55 258.06 76.41 255.1 76.41 255.1 74.43 263.2 74.43" style="fill: rgb(96, 106, 110);"></polygon>
            <rect class="padGrey" x="250.67" y="74.43" width="2.17" height="9.52" style="fill: rgb(96, 106, 110);"></rect>
            <path class="padGrey" d="M282.29,66.55c3.46-.08,3.71,5.12.36,5.43-3.78.35-3.99-5.34-.36-5.43ZM281.92,67.76c-1.46.3-1.56,2.79.19,3.07,2.37.38,2.42-3.61-.19-3.07Z" style="fill: rgb(96, 106, 110);"></path>
            <path class="padGrey" d="M225.14,66.85c.07-.23.89-.14,1.11-.12l2.47,3.28v-3.3h1.04v5.09l-1.09-.09-2.4-3.12v3.2h-1.13v-4.95Z" style="fill: rgb(96, 106, 110);"></path>
            <polygon class="padGrey" points="242 69.91 242 66.71 243.04 66.71 243.04 71.79 241.95 71.71 239.55 68.5 239.55 71.79 238.51 71.79 238.51 66.71 239.6 66.79 242 69.91" style="fill: rgb(96, 106, 110);"></polygon>
            <path class="padGrey" d="M266.31,69.91v-3.06c.25-.27.7-.1,1.04-.14v5.09l-1.04-.05-2.45-3.25v3.3h-1.04v-5.09l1.09.09,2.4,3.12Z" style="fill: rgb(96, 106, 110);"></path>
            <path class="padGrey" d="M271.68,71.79v-5.09h2.4c.13,0,.8.28.96.36,1.72.9,1.8,3.32.15,4.33-.12.07-.75.4-.83.4h-2.69ZM272.72,70.76h1.37s.44-.19.51-.24c.83-.54.92-1.77.13-2.39-.08-.06-.49-.3-.55-.3h-1.46v2.92Z" style="fill: rgb(96, 106, 110);"></path>
            <path class="padGrey" d="M258.68,67.65h-2.92v1.13h2.64v.94h-2.64v1.13h2.78c.26.22.11.63.14.94h-4.05v-4.95l.14-.14h3.77c.26.22.11.63.14.94Z" style="fill: rgb(96, 106, 110);"></path>
            <path class="padGrey" d="M250.95,66.71v1.13h-1.51v3.96h-1.13v-3.96h-1.55l-.13-.16c-.03-.09-.01-.18-.02-.26-.02-.23-.05-.57.15-.71h4.19Z" style="fill: rgb(96, 106, 110);"></path>
            <path class="padGrey" d="M234.75,71.79h-1.22v-4.95c.27-.23.97-.23,1.22,0v4.95Z" style="fill: rgb(96, 106, 110);"></path>
            <path class="padGrey" d="M230.2,32.62c4.51-.62,5.05,5.91,1,6.37-4.36.5-4.9-5.84-1-6.37Z" style="fill: rgb(96, 106, 110);"></path>
    </g>
    <circle id="leftStickClick" class="invizCircle" cx="118.12" cy="108.49" r="44.39"></circle>
    <circle id="rightStickClick" class="invizCircle" cx="317.91" cy="183.48" r="44.39"></circle>
    <circle id="xButton" class="invizCircle" cx="347.1" cy="109.73" r="21.72"></circle>
    <circle id="yButton" class="invizCircle" cx="388.11" cy="74.44" r="21.72"></circle>
    <circle id="aButton" class="invizCircle" cx="428.77" cy="109.05" r="21.72"></circle>
    <circle id="bButton" class="invizCircle" cx="386.96" cy="144.74" r="21.72"></circle>
    <path id="leftTrigger" class="invizCircle" d="M77.35,35.14s3.08-12.92,9.84-22.86c7.13-2.86,14.69-4.48,22.36-4.77,0,0,7.65,2.78,14.91,13.82l-47.11,13.82Z"></path>
    <path id="rightTrigger" class="invizCircle" d="M419.43,35.14s-3.08-12.92-9.84-22.86c-7.13-2.86-14.69-4.48-22.36-4.77,0,0-7.65,2.78-14.91,13.82l47.11,13.82Z"></path>
    <path id="leftBumper" class="invizCircle" d="M59.05,39.65l3.38-11.33S87.31,5.99,136.73.14c4.03-.47,8.11.26,11.73,2.1,9.43,4.8,28.73,14.31,35.83,15.34l-125.24,22.06Z"></path>
    <path id="rightBumper" class="invizCircle" d="M447.06,39.65l-3.38-11.33S418.8,5.99,369.37.15c-4.03-.47-8.11.26-11.72,2.1-9.43,4.8-28.73,14.31-35.83,15.34l125.24,22.06Z"></path>
    <circle id="backButton" class="invizCircle" cx="193.7" cy="69.57" r="14.12"></circle>
    <circle id="startButton" class="invizCircle" cx="316.5" cy="69.57" r="14.12"></circle>
    <path id="dpadUp" class="invizCircle" d="M167.83,166.7v-19.77s6.43-2.6,12.61-2.6,13.26,2.6,13.26,2.6v19.77h-25.88Z"></path>
    <path id="dpadDown" class="invizCircle" d="M193.7,196.28v19.77s-6.43,2.6-12.61,2.6-13.26-2.6-13.26-2.6v-19.77h25.88Z"></path>
    <path id="dpadLeft" class="invizCircle" d="M165.98,194.43h-19.77s-2.6-6.43-2.6-12.61,2.6-13.26,2.6-13.26h19.77v25.88Z"></path>
    <path id="dpadRight" class="invizCircle" d="M195.56,168.55h19.77s2.6,6.43,2.6,12.61-2.6,13.26-2.6,13.26h-19.77v-25.88Z"></path>
</svg>