<svg id="Layer_1" class="controller" xmlns="http://www.w3.org/2000/svg" viewBox="-20 -20 560.28 405.63" style="width: 411px;margin-top: 117px;margin-left: -2px;">
    <defs>
        <style>.padWhite {}.padWhite,.padGrey,.padBlack,.invizCircle{stroke-width:0px;}.padGrey {}.padBlack {}.invizCircle{fill:#fff;opacity:0;}</style>
    </defs>
    <path id="Path_319" class="padBlack" d="M89.1,27.76s3.08-12.92,9.84-22.86c7.13-2.86,14.69-4.48,22.36-4.77,0,0,7.65,2.78,14.91,13.82l-47.11,13.82Z" style="fill: rgb(36, 36, 36); stroke: none; stroke-width: 0pt; vector-effect: non-scaling-stroke;"></path>
    <path id="Path_320" class="padBlack" d="M431.17,27.76s-3.08-12.92-9.84-22.86c-7.13-2.86-14.69-4.48-22.36-4.77,0,0-7.65,2.78-14.91,13.82l47.11,13.82Z" style="fill: rgb(36, 36, 36); stroke: none; stroke-width: 0pt; vector-effect: non-scaling-stroke;"></path>
    <path id="Path_321" class="padGrey" d="M79.75,40.48l3.38-11.33S108.02,6.83,157.44.98c4.03-.47,8.11.26,11.73,2.1,9.43,4.8,28.73,14.31,35.83,15.34l-125.24,22.06Z" style="fill: rgb(96, 106, 110);"></path>
    <path id="Path_322" class="padGrey" d="M440.52,40.48l-3.38-11.33S412.25,6.83,362.83.98c-4.03-.47-8.11.26-11.72,2.1-9.43,4.8-28.73,14.31-35.83,15.34l125.24,22.06Z" style="fill: rgb(96, 106, 110);"></path>
    <path id="Path_323" class="padBlack" d="M260.14,15.64h-101.56s-83.2.6-101.09,48.01C39.6,111.05-7.91,235.5,1.13,306.07c0,0,2.88,43.48,45.74,58.73,5.03,1.78,10.61,1.05,15.03-1.94,8.4-5.68,23.72-19.32,47.95-52.07,4.68-6.33,10.97-14.96,16.35-20.7,14.98-15.97,21.07-25.48,61-25.48h145.86c39.92,0,46.02,9.51,61,25.48,5.38,5.74,11.67,14.37,16.35,20.7,24.23,32.74,39.54,46.39,47.95,52.07,4.42,3,10,3.72,15.03,1.94,42.86-15.25,45.74-58.73,45.74-58.73,9.04-70.57-38.47-195.02-56.36-242.43-17.89-47.41-101.09-48.01-101.09-48.01h-101.56Z" style="fill: rgb(36, 36, 36); stroke: none; stroke-width: 0pt; vector-effect: non-scaling-stroke;"></path>
    <path id="Path_324" class="padGrey" d="M329.37,142.62c21.03,0,38.08,17.05,38.08,38.08,0,21.03-17.05,38.08-38.08,38.08s-38.08-17.05-38.08-38.08c.02-21.02,17.06-38.06,38.08-38.08M329.37,139.09c-22.98,0-41.61,18.63-41.61,41.61s18.63,41.61,41.61,41.61,41.61-18.63,41.61-41.61c0-22.98-18.63-41.62-41.61-41.62h0" style="fill: rgb(96, 106, 110);"></path>
    <path id="Path_325" class="padGrey" d="M329.37,152.56c15.54,0,28.14,12.6,28.14,28.14,0,15.54-12.6,28.14-28.14,28.14s-28.14-12.6-28.14-28.14c.02-15.53,12.61-28.12,28.14-28.14M329.37,146.9c-18.67,0-33.8,15.13-33.8,33.8s15.13,33.8,33.8,33.8,33.8-15.13,33.8-33.8h0c0-18.66-15.13-33.8-33.79-33.8h0" style="fill: rgb(96, 106, 110);"></path>
    <path id="Path_326" class="padWhite" d="M329.37,161.26c10.74,0,19.44,8.7,19.44,19.44s-8.7,19.44-19.44,19.44-19.44-8.7-19.44-19.44h0c.01-10.73,8.71-19.43,19.44-19.44M329.37,158.43c-12.3,0-22.26,9.97-22.26,22.27s9.97,22.26,22.27,22.26,22.26-9.97,22.26-22.26c0-12.3-9.97-22.26-22.26-22.27h0" style="fill: rgb(255, 255, 255);"></path>
    <path id="Path_327" class="padGrey" d="M125.01,63.1c21.03,0,38.08,17.05,38.08,38.08s-17.05,38.08-38.08,38.08-38.08-17.05-38.08-38.08c.02-21.02,17.06-38.06,38.08-38.08M125.01,59.57c-22.98,0-41.61,18.63-41.61,41.61s18.63,41.61,41.61,41.61c22.98,0,41.61-18.63,41.61-41.61h0c0-22.98-18.63-41.61-41.61-41.61h0" style="fill: rgb(96, 106, 110);"></path>
    <path id="Path_328" class="padGrey" d="M125.01,73.04c15.54,0,28.14,12.6,28.14,28.14s-12.6,28.14-28.14,28.14c-15.54,0-28.14-12.6-28.14-28.14.02-15.53,12.61-28.12,28.14-28.14M125.01,67.39c-18.66,0-33.79,15.14-33.79,33.8,0,18.66,15.14,33.79,33.8,33.79,18.66,0,33.79-15.13,33.79-33.79s-15.13-33.79-33.8-33.79h0" style="fill: rgb(96, 106, 110);"></path>
    <path id="Path_329" class="padWhite" d="M125.01,81.74c10.74,0,19.44,8.7,19.44,19.44s-8.7,19.44-19.44,19.44c-10.74,0-19.44-8.7-19.44-19.44h0c.01-10.73,8.71-19.43,19.44-19.44M125.01,78.92c-12.3,0-22.26,9.97-22.26,22.27s9.97,22.26,22.27,22.26c12.3,0,22.26-9.97,22.26-22.26s-9.97-22.26-22.26-22.26h0" style="fill: rgb(255, 255, 255);"></path>
    <path id="Path_330" class="padGrey" d="M267.78,120.6h-15.17c-5.11,0-9.24,4.14-9.24,9.24s4.14,9.24,9.24,9.24h15.17c5.11,0,9.24-4.14,9.24-9.24s-4.14-9.24-9.24-9.24" style="fill: rgb(96, 106, 110);"></path>
    <path id="Path_331" class="padGrey" d="M299.32,86.87c-7.34,0-13.29,5.95-13.29,13.29,0,7.34,5.95,13.29,13.29,13.29,7.34,0,13.29-5.95,13.29-13.29s-5.95-13.29-13.29-13.29h0" style="fill: rgb(96, 106, 110);"></path>
    <path id="Path_332" class="padGrey" d="M260.7,26.7c-11.6,0-21.01,9.4-21.01,21.01s9.4,21.01,21.01,21.01c11.6,0,21.01-9.4,21.01-21.01s-9.4-21.01-21.01-21.01h0" style="fill: rgb(96, 106, 110);"></path>
    <path id="Path_333" class="padGrey" d="M221.53,86.87c-7.34,0-13.29,5.95-13.29,13.29,0,7.34,5.95,13.29,13.29,13.29,7.34,0,13.29-5.95,13.29-13.29s-5.95-13.29-13.29-13.29h0" style="fill: rgb(96, 106, 110);"></path>
    <path id="Path_334" class="padWhite" d="M226.91,104.64h-5.47v-4.31h5.47v4.31ZM228.32,98.92h-8.3v7.14h8.3v-7.14Z" style="fill: rgb(255, 255, 255);"></path>
    <path id="Path_335" class="padWhite" d="M218.72,101.78h-2.82v-5.74h6.89v1.57h1.41v-2.99h-9.72v8.56h4.24v-1.41Z" style="fill: rgb(255, 255, 255);"></path>
    <path id="Path_336" class="padWhite" d="M294.42,97.56h10.07v-1.41h-10.07" style="fill: rgb(255, 255, 255);"></path>
    <path id="Path_337" class="padWhite" d="M294.42,100.87h10.07v-1.41h-10.07" style="fill: rgb(255, 255, 255);"></path>
    <path id="Path_338" class="padWhite" d="M294.42,104.19h10.07v-1.41h-10.07" style="fill: rgb(255, 255, 255);"></path>
    <path id="Path_339" class="padWhite" d="M252.93,128.13v5.6h14.54v-5.6h-1.41v4.19h-11.71v-4.19h-1.41Z" style="fill: rgb(255, 255, 255);"></path>
    <path id="Path_340" class="padWhite" d="M258.81,128.66l1.43-1.64,1.58,1.66,1.02-.97-2.65-2.79-2.45,2.81,1.06.93Z" style="fill: rgb(255, 255, 255);"></path>
    <path id="Path_341" class="padWhite" d="M260.93,131.1v-5.09h-1.41v5.09" style="fill: rgb(255, 255, 255);"></path>
    <path id="Path_342" class="padGrey" d="M190.83,149.17c21.69,0,39.27,17.58,39.27,39.27,0,21.69-17.58,39.27-39.27,39.27-21.69,0-39.27-17.58-39.27-39.27h0c.02-21.68,17.59-39.24,39.27-39.27M190.83,146.34c-23.25,0-42.09,18.85-42.09,42.09s18.85,42.09,42.09,42.09,42.09-18.85,42.09-42.09h0c0-23.25-18.85-42.09-42.09-42.09" style="fill: rgb(96, 106, 110);"></path>
    <path id="Path_343" class="padGrey" d="M190.68,152.71c-4.43.06-8.8.92-12.92,2.54v19.16h-20.61c-3.37,8.96-3.37,18.83,0,27.79h20.61v19.16c8.28,3.39,17.56,3.39,25.84,0v-19.16h20.61c3.37-8.96,3.37-18.83,0-27.79h-20.61v-19.16c-4.12-1.63-8.49-2.49-12.92-2.54" style="fill: rgb(96, 106, 110);"></path>
    <path id="Path_344" class="padGrey" d="M395.83,47.11c-10.8,0-19.56,8.76-19.56,19.56,0,10.8,8.76,19.56,19.56,19.56,10.8,0,19.56-8.76,19.56-19.56h0c0-10.8-8.76-19.56-19.56-19.56" style="fill: rgb(96, 106, 110);"></path>
    <path id="Path_356" class="padGrey" d="M145.06,101.12c0,11.07-8.98,20.05-20.05,20.05-11.07,0-20.05-8.98-20.05-20.05s8.98-20.05,20.05-20.05h0c11.07,0,20.05,8.98,20.05,20.05" style="fill: rgb(96, 106, 110);"></path>
    <path id="Path_357" class="padGrey" d="M349.71,180.47c0,11.07-8.98,20.05-20.05,20.05s-20.05-8.98-20.05-20.05,8.98-20.05,20.05-20.05h0c11.07,0,20.05,8.98,20.05,20.05" style="fill: rgb(96, 106, 110);"></path>
    <path id="Path_352" class="padWhite" d="M260.78,44.24c.43.34.9.68,1.34,1.07,3.16,2.67,5.98,5.72,8.41,9.07.95,1.25,1.67,2.65,2.14,4.15.48,1.08.07,2.35-.94,2.96-2.37,1.95-5.24,3.22-8.28,3.67-4.95.82-10.01-.55-13.88-3.74-.96-.63-1.33-1.87-.87-2.93.45-1.4,1.12-2.72,2-3.89,2.67-3.75,5.84-7.12,9.43-10,.12-.09.24-.17.36-.25.09-.04.19-.07.28-.1" style="fill: rgb(255, 255, 255);"></path>
    <path id="Path_353" class="padWhite" d="M274.76,58.31c-.04-.12-.07-.23-.09-.36.1-2.04-.36-4.07-1.33-5.87-2-4.2-4.5-8.14-7.45-11.74-.13-.17-.26-.34-.46-.61,1.04-.92,2-1.86,3.07-2.67.92-.68,1.9-1.28,2.93-1.78,1.06-.52,1.52-.35,2.32.52,2.37,2.54,3.91,5.75,4.4,9.19.71,4.43-.32,8.96-2.86,12.65-.13.2-.3.37-.53.66" style="fill: rgb(255, 255, 255);"></path>
    <path id="Path_354" class="padWhite" d="M246.54,58.22c-.2-.26-.4-.52-.58-.79-2.27-3.42-3.26-7.52-2.8-11.6.37-3.78,1.98-7.33,4.57-10.11.45-.73,1.41-.95,2.14-.49,0,0,0,0,.01,0,.84.38,1.65.84,2.41,1.37,1.3.93,2.52,1.99,3.62,3.15-.13.19-.22.36-.34.5-2.87,3.47-5.32,7.27-7.29,11.32-.59,1.31-1.07,2.67-1.43,4.07-.14.82-.2,1.64-.18,2.47l-.12.1Z" style="fill: rgb(255, 255, 255);"></path>
    <path id="Path_355" class="padWhite" d="M260.69,35.28c-2.88-1.44-5.72-2.87-9.07-2.61,2.38-1.57,5.15-2.47,8-2.6,3.57-.25,7.14.66,10.15,2.59-3.33-.23-6.19,1.15-9.08,2.61" style="fill: rgb(255, 255, 255);"></path>
    <path id="Path_345" class="padWhite" d="M393.11,78.54v-9.41l-7.25-13.55h5.95l2.34,5.52c.7,1.65,1.21,2.88,1.77,4.4h.07c.51-1.43,1.06-2.78,1.73-4.4l2.31-5.52h5.85l-7.57,13.37v9.59h-5.19Z" style="fill: rgb(255, 255, 255);"></path>
    <g id="Group_679">
        <g id="Group_678">
            <path id="Path_346" class="padGrey" d="M395.83,117.75c-10.8,0-19.56,8.76-19.56,19.56,0,10.8,8.76,19.56,19.56,19.56,10.8,0,19.56-8.76,19.56-19.56h0c0-10.8-8.76-19.56-19.56-19.56h0" style="fill: rgb(96, 106, 110);"></path>
        </g>
        <g id="Group_678-2">
            <path id="Path_346-2" class="padGrey" d="M395.83,117.75c-10.8,0-19.56,8.76-19.56,19.56,0,10.8,8.76,19.56,19.56,19.56,10.8,0,19.56-8.76,19.56-19.56h0c0-10.8-8.76-19.56-19.56-19.56h0" style="fill: rgb(96, 106, 110);"></path>
        </g>
    </g>
    <path id="Path_347" class="padWhite" d="M392.23,141.86l-1.62,5.89h-5.37l7.01-22.96h6.79l7.15,22.96h-5.59l-1.77-5.89h-6.6ZM398.07,137.99l-1.43-4.88c-.39-1.36-.8-3.08-1.15-4.42h-.07c-.34,1.35-.68,3.09-1.05,4.43l-1.37,4.87h5.08Z" style="fill: rgb(255, 255, 255);"></path>
    <g id="Group_681">
        <g id="Group_680">
            <path id="Path_348" class="padGrey" d="M358.85,82.4c-10.8,0-19.56,8.76-19.56,19.56s8.76,19.56,19.56,19.56,19.56-8.76,19.56-19.56h0c0-10.8-8.76-19.56-19.56-19.56" style="fill: rgb(96, 106, 110);"></path>
        </g>
    </g>
    <path id="Path_349" class="padWhite" d="M362.74,113.82l-2.07-4.15c-.83-1.61-1.4-2.8-2.03-4.13h-.07c-.48,1.33-1.04,2.53-1.79,4.12l-1.9,4.17h-5.91l6.63-11.62-6.4-11.33h5.97l2.01,4.18c.67,1.4,1.17,2.53,1.71,3.82h.09c.55-1.46.98-2.48,1.57-3.8l1.93-4.19h5.93l-6.47,11.2,6.81,11.76h-6Z" style="fill: rgb(255, 255, 255);"></path>
    <g id="Group_683">
        <g id="Group_682">
            <path id="Path_350" class="padGrey" d="M432.01,82.4c-10.8,0-19.56,8.76-19.56,19.56s8.76,19.56,19.56,19.56,19.56-8.76,19.56-19.56h0c0-10.8-8.76-19.56-19.56-19.56h0" style="fill: rgb(96, 106, 110);"></path>
        </g>
    </g>
    <path id="Path_351" class="padWhite" d="M423.98,91.18c2.22-.34,4.46-.51,6.7-.49,3.16,0,5.11.31,6.79,1.29,1.7.86,2.77,2.62,2.74,4.53-.05,2.28-1.58,4.26-3.77,4.88v.09c2.67.55,4.58,2.9,4.57,5.63.01,1.91-.87,3.71-2.39,4.88-1.68,1.35-4.46,2.09-9.03,2.09-1.88.02-3.75-.09-5.61-.34v-22.54ZM429.12,99.97h1.68c2.75,0,4.18-1.14,4.18-2.85s-1.32-2.66-3.67-2.66c-.74-.02-1.47.03-2.2.16v5.35ZM429.12,110.13c.66.08,1.33.11,1.99.09,2.36,0,4.43-.91,4.43-3.33s-2.06-3.22-4.65-3.22h-1.77v6.45Z" style="fill: rgb(255, 255, 255);"></path>
    <circle id="leftStick" class="invizCircle" cx="124.97" cy="100.99" r="44.39"></circle>
    <circle id="rightStick" class="invizCircle" cx="329.62" cy="180.34" r="44.39"></circle>
    <circle id="xButton" class="invizCircle" cx="358.81" cy="102.22" r="21.72"></circle>
    <circle id="yButton" class="invizCircle" cx="395.82" cy="66.93" r="21.72"></circle>
    <circle id="bButton" class="invizCircle" cx="432.29" cy="101.54" r="21.72"></circle>
    <circle id="aButton" class="invizCircle" cx="395.82" cy="137.24" r="21.72"></circle>
    <path id="leftTrigger" class="invizCircle" d="M89.06,27.63s3.08-12.92,9.84-22.86c7.13-2.86,14.69-4.48,22.36-4.77,0,0,7.65,2.78,14.91,13.82l-47.11,13.82Z"></path>
    <path id="rightTrigger" class="invizCircle" d="M431.14,27.63s-3.08-12.92-9.84-22.86c-7.13-2.86-14.69-4.48-22.36-4.77,0,0-7.65,2.78-14.91,13.82l47.11,13.82Z"></path>
    <path id="leftBumper" class="invizCircle" d="M79.71,40.35l3.38-11.33S107.98,6.7,157.4.85c4.03-.47,8.11.26,11.73,2.1,9.43,4.8,28.73,14.31,35.83,15.34l-125.24,22.06Z"></path>
    <path id="rightBumper" class="invizCircle" d="M440.48,40.35l-3.38-11.33S412.21,6.7,362.79.85c-4.03-.47-8.11.26-11.72,2.1-9.43,4.8-28.73,14.31-35.83,15.34l125.24,22.06Z"></path>
    <circle id="backButton" class="invizCircle" cx="221.38" cy="99.8" r="14.12"></circle>
    <circle id="startButton" class="invizCircle" cx="299.35" cy="99.8" r="14.12"></circle>
    <path id="dpadUp" class="invizCircle" d="M178.26,174.23v-18.69s6.08-2.46,11.92-2.46,12.54,2.46,12.54,2.46v18.69h-24.46Z"></path>
    <path id="dpadDown" class="invizCircle" d="M202.72,202.19v18.69s-6.08,2.46-11.92,2.46-12.54-2.46-12.54-2.46v-18.69h24.46Z"></path>
    <path id="dpadLeft" class="invizCircle" d="M176.51,200.44h-18.69s-2.46-6.08-2.46-11.92,2.46-12.54,2.46-12.54h18.69v24.46Z"></path>
    <path id="dpadRight" class="invizCircle" d="M204.47,175.98h18.69s2.46,6.08,2.46,11.92-2.46,12.54-2.46,12.54h-18.69v-24.46Z"></path>
</svg>